<svg width="256" height="256" viewBox="0 0 256 256" fill="none" xmlns="http://www.w3.org/2000/svg">
<path d="M86.5 178.667C86.9444 178 86.7778 177.278 86 176.5C85 175.722 84.2222 175.611 83.6667 176.167C83.2222 176.833 83.3889 177.556 84.1667 178.333C85.1667 179.111 85.9444 179.222 86.5 178.667ZM81.8333 171.833C81.2778 171.056 80.6111 170.833 79.8333 171.167C79.1667 171.611 79.1667 172.278 79.8333 173.167C80.6111 174.056 81.2778 174.333 81.8333 174C82.5 173.556 82.5 172.833 81.8333 171.833ZM75 165.167C75.2222 164.722 74.9444 164.278 74.1667 163.833C73.3889 163.611 72.9444 163.722 72.8333 164.167C72.5 164.722 72.7222 165.167 73.5 165.5C74.3889 165.722 74.8889 165.611 75 165.167ZM78.5 169C78.7222 168.889 78.8056 168.639 78.75 168.25C78.6944 167.861 78.5 167.556 78.1667 167.333C77.5 166.556 76.9444 166.389 76.5 166.833C76.0556 167.278 76.1111 167.889 76.6667 168.667C77.3333 169.333 77.9444 169.444 78.5 169ZM92.8333 181.5C93.0556 180.722 92.5556 180.111 91.3333 179.667C90.3333 179.333 89.6111 179.556 89.1667 180.333C88.9444 181.111 89.4444 181.722 90.6667 182.167C91.6667 182.5 92.3889 182.278 92.8333 181.5ZM99.8333 182C99.8333 181.111 99.1667 180.667 97.8333 180.667C96.7222 180.667 96.1667 181.111 96.1667 182C96.1667 182.889 96.7778 183.333 98 183.333C99.2222 183.333 99.8333 182.889 99.8333 182ZM106.333 180.833C106.111 180.056 105.389 179.778 104.167 180C102.944 180.222 102.444 180.722 102.667 181.5C102.889 182.389 103.556 182.722 104.667 182.5C105.778 182.278 106.333 181.722 106.333 180.833ZM213.333 128C213.333 104.444 205 84.3333 188.333 67.6667C171.667 51 151.556 42.6667 128 42.6667C104.444 42.6667 84.3333 51 67.6667 67.6667C51 84.3333 42.6667 104.444 42.6667 128C42.6667 146.556 48.1111 163.25 59 178.083C69.8889 192.917 83.8889 203.222 101 209C103 209.333 104.472 209.056 105.417 208.167C106.361 207.278 106.833 206.167 106.833 204.833C106.833 199.056 106.778 193.778 106.667 189C106 189.111 105.139 189.25 104.083 189.417C103.028 189.583 101.056 189.694 98.1667 189.75C95.2778 189.806 92.6111 189.583 90.1667 189.083C87.7222 188.583 85.3056 187.472 82.9167 185.75C80.5278 184.028 78.8889 181.722 78 178.833C75.4444 172.278 72.2778 168.167 68.5 166.5C68.2778 166.389 68.0278 166.194 67.75 165.917L66.4167 164.583L65.25 163L65.9167 161.75L69.1667 161.167C69.8333 161.167 70.6667 161.278 71.6667 161.5C72.6667 161.722 74.3333 162.583 76.6667 164.083C79 165.583 80.8333 167.556 82.1667 170C83.9444 173.111 86.0278 175.444 88.4167 177C90.8056 178.556 93.2222 179.333 95.6667 179.333C98.1111 179.333 100.222 179.139 102 178.75C103.778 178.361 105.444 177.833 107 177.167C107.778 171.944 109.611 168.111 112.5 165.667C107.056 165 102.278 163.972 98.1667 162.583C94.0556 161.194 90 159.028 86 156.083C82 153.139 78.9167 148.917 76.75 143.417C74.5833 137.917 73.5 131.278 73.5 123.5C73.5 114.722 76.4444 107.111 82.3333 100.667C79.6667 93.7778 79.9444 86.2222 83.1667 78C85.2778 77.3333 88.3056 77.75 92.25 79.25C96.1944 80.75 99.5556 82.3889 102.333 84.1667L106.667 86.8333C113.111 84.9444 120.222 84 128 84C135.778 84 142.889 84.9444 149.333 86.8333C150.556 86.0556 152.139 85.0556 154.083 83.8333C156.028 82.6111 159.111 81.1667 163.333 79.5C167.556 77.8333 170.722 77.3333 172.833 78C176.056 86.2222 176.333 93.7778 173.667 100.667C179.556 107.111 182.5 114.722 182.5 123.5C182.5 129.833 181.722 135.417 180.167 140.25C178.611 145.083 176.639 148.972 174.25 151.917C171.861 154.861 168.889 157.333 165.333 159.333C161.778 161.333 158.306 162.778 154.917 163.667C151.528 164.556 147.722 165.222 143.5 165.667C147.389 169.111 149.333 174.389 149.333 181.5C149.333 185.944 149.306 190.889 149.25 196.333C149.194 201.778 149.167 204.611 149.167 204.833C149.167 206.167 149.639 207.278 150.583 208.167C151.528 209.056 153 209.333 155 209C172.111 203.222 186.111 192.917 197 178.083C207.889 163.25 213.333 146.556 213.333 128ZM256 48V208C256 221.222 251.306 232.528 241.917 241.917C232.528 251.306 221.222 256 208 256H48C34.7778 256 23.4722 251.306 14.0833 241.917C4.69444 232.528 0 221.222 0 208V48C0 34.7778 4.69444 23.4722 14.0833 14.0833C23.4722 4.69444 34.7778 0 48 0H208C221.222 0 232.528 4.69444 241.917 14.0833C251.306 23.4722 256 34.7778 256 48Z" fill="black"/>
</svg>
